<?xml version="1.0" encoding="UTF-8"?>
<svg id="Livello_1" data-name="Livello 1" xmlns="http://www.w3.org/2000/svg" viewBox="0 0 722.19 147.62">
  <defs>
    <style>
      .cls-1 {
        stroke: #b9c0cc;
        stroke-width: 2px;
      }

      .cls-1, .cls-2 {
        fill: none;
      }

      .cls-3 {
        isolation: isolate;
      }

      .cls-4 {
        fill: #5a5a5a;
      }

      .cls-4, .cls-5, .cls-6, .cls-7, .cls-8, .cls-9 {
        stroke-width: 0px;
      }

      .cls-5 {
        fill: #cfd5df;
      }

      .cls-6 {
        fill: #7a7a7a;
      }

      .cls-7 {
        fill: #3a3a3a;
      }

      .cls-8 {
        fill: #e6e9ef;
      }

      .cls-2 {
        stroke: #9aa1ad;
        stroke-width: 3px;
      }

      .cls-9 {
        fill: #dfe3ea;
      }
    </style>
  </defs>
  <g class="cls-3">
    <path class="cls-7" d="M58.85,130.99c-7.43,0-14.56-1.47-21.38-4.4-6.82-2.93-12.87-7.15-18.13-12.66-5.21-5.51-9.37-12.24-12.47-20.18-3.1-7.94-4.65-16.9-4.65-26.87s1.52-19.01,4.57-27.13c3.04-8.12,7.26-15.11,12.64-20.98,5.33-5.8,11.62-10.29,18.88-13.46S53.31.56,61.57.56c6.15,0,11.71.76,16.68,2.29,4.98,1.52,9.72,3.66,14.22,6.42l3.6-5.98h7.03l.79,44.47h-7.21c-.94-4.34-2.34-9.04-4.21-14.11-1.87-5.07-4.07-9.36-6.58-12.88-2.81-3.98-6.15-7.1-10.01-9.36-3.86-2.25-8.28-3.38-13.26-3.38-5.68,0-10.96,1.26-15.85,3.78s-9.11,6.25-12.68,11.17c-3.4,4.75-6.06,10.79-7.99,18.12-1.93,7.33-2.9,15.51-2.9,24.54,0,7.97,1.01,15.29,3.03,21.95,2.02,6.66,4.9,12.51,8.65,17.55,3.74,4.99,8.18,8.88,13.3,11.7s10.84,4.22,17.16,4.22c4.74,0,9.1-.75,13.08-2.24,3.98-1.49,7.43-3.47,10.36-5.93,2.93-2.58,5.5-5.51,7.72-8.79,2.23-3.28,4.04-6.86,5.44-10.72l6.59,3.16c-5.03,12.36-11.71,21.2-20.02,26.5s-18.21,7.95-29.68,7.95Z"/>
  </g>
  <g class="cls-3">
    <g class="cls-3">
      <path class="cls-7" d="M194.85,128h-20.52c-4.54-7.12-8.65-13.28-12.31-18.48-3.67-5.19-7.65-10.54-11.94-16.06h-7.81v24.17c0,1.25.2,2.35.59,3.3.39.95,1.24,1.67,2.52,2.17.64.25,1.77.48,3.38.7s2.97.34,4.08.38v3.81h-32.23v-3.81c.86-.07,2.1-.2,3.73-.38,1.63-.18,2.77-.41,3.41-.7,1.07-.46,1.85-1.15,2.34-2.04.48-.89.73-2.04.73-3.44v-55.11c0-1.25-.18-2.36-.54-3.33-.36-.97-1.2-1.7-2.52-2.2-.9-.32-2.06-.62-3.49-.89-1.43-.27-2.65-.44-3.65-.51v-3.81h35.18c3.22,0,6.25.33,9.08.99,2.83.66,5.39,1.73,7.68,3.2,2.22,1.43,3.99,3.3,5.32,5.61,1.32,2.31,1.99,5.09,1.99,8.35,0,2.94-.45,5.53-1.34,7.79-.9,2.26-2.22,4.21-3.97,5.85-1.61,1.54-3.54,2.87-5.8,4-2.26,1.13-4.75,2.09-7.47,2.87,3.76,4.98,6.88,9.17,9.37,12.57,2.49,3.4,5.54,7.54,9.16,12.41,1.58,2.15,3,3.73,4.27,4.75,1.27,1.02,2.53,1.85,3.79,2.5.93.47,2.09.82,3.49,1.07,1.4.25,2.56.39,3.49.43v3.81ZM166.6,71.2c0-4.61-1.33-8.27-3.97-10.97-2.65-2.7-6.39-4.05-11.23-4.05h-9.13v32.66h7.04c4.94,0,9.06-1.58,12.35-4.75,3.29-3.16,4.94-7.46,4.94-12.9Z"/>
      <path class="cls-7" d="M289.54,128h-33.68v-3.81c1.22-.04,2.78-.16,4.7-.38,1.92-.21,3.23-.52,3.95-.91,1.11-.68,1.92-1.46,2.44-2.34.52-.88.78-1.98.78-3.3v-55.43h-.81l-26,64.94h-2.69l-24.76-66.28h-.7v45.49c0,4.4.28,7.75.83,10.04.55,2.29,1.4,3.94,2.55,4.94.79.75,2.42,1.47,4.89,2.15,2.47.68,4.08,1.04,4.83,1.07v3.81h-30.78v-3.81c1.61-.14,3.3-.41,5.08-.81,1.77-.39,3.14-.98,4.11-1.77,1.25-1,2.11-2.54,2.58-4.62.46-2.08.7-5.55.7-10.42v-38.99c0-2.26-.27-4.1-.81-5.53-.54-1.43-1.31-2.6-2.31-3.49-1.11-.97-2.47-1.68-4.08-2.15-1.61-.46-3.21-.73-4.78-.81v-3.81h25.99l21.83,57.21,18.64-47.86c.68-1.76,1.26-3.59,1.74-5.51s.74-3.2.78-3.84h24.85v3.81c-1,.04-2.28.2-3.84.48-1.56.29-2.69.56-3.41.81-1.22.43-2.04,1.15-2.47,2.15-.43,1-.64,2.09-.64,3.28v54.95c0,1.25.21,2.31.64,3.17s1.25,1.61,2.47,2.26c.64.36,1.79.69,3.44.99,1.65.3,2.95.48,3.92.51v3.81Z"/>
    </g>
    <g class="cls-3">
      <path class="cls-6" d="M330.29,96.38c-1.03.18-2,.55-2.92,1.11-.92.56-1.71,1.54-2.38,2.96-1.34,3.05-2.73,6.24-4.17,9.55-1.44,3.32-2.93,6.8-4.48,10.44-.46,1.05-.94,2.29-1.45,3.73s-.99,2.81-1.42,4.14h-2.67c-2.17-5.35-4.16-10.24-5.98-14.65-1.82-4.41-3.71-8.93-5.67-13.55-.46-1.05-1.19-1.86-2.2-2.44-1.01-.58-2.03-.95-3.06-1.11v-2.26h15.6v2.39c-.68.02-1.54.17-2.56.43s-1.54.62-1.54,1.07c0,.07.06.25.17.53.11.29.23.61.34.97.93,2.32,2.25,5.57,3.95,9.73,1.7,4.17,3.09,7.52,4.16,10.07.82-1.96,1.85-4.39,3.09-7.31,1.24-2.91,2.58-6.17,4.02-9.76.23-.61.44-1.19.65-1.72s.31-1.08.31-1.62c0-.39-.19-.73-.56-1.04-.38-.31-.83-.57-1.35-.8-.52-.23-1.04-.4-1.54-.51-.5-.11-.91-.19-1.23-.24v-2.19h12.9v2.08Z"/>
      <path class="cls-6" d="M357.56,98.64c0,1.16-.29,2.19-.85,3.09-.57.9-1.45,1.35-2.63,1.35-1.28,0-2.25-.33-2.92-.99-.67-.66-1.01-1.39-1.01-2.19,0-.5.04-.96.12-1.37.08-.41.15-.82.22-1.23-1.07,0-2.32.43-3.76,1.3-1.44.87-2.65,2.1-3.66,3.69v19.62c0,.8.15,1.45.46,1.95.31.5.79.88,1.45,1.13.57.23,1.3.4,2.2.51.9.11,1.68.19,2.34.24v2.26h-17.77v-2.26c.52-.04,1.06-.09,1.62-.14.56-.04,1.04-.14,1.45-.27.64-.21,1.11-.56,1.42-1.08.31-.51.46-1.18.46-2v-20.79c0-.71-.17-1.4-.5-2.08-.33-.68-.79-1.23-1.38-1.64-.43-.27-.95-.47-1.54-.6-.59-.12-1.23-.21-1.91-.26v-2.26l11.21-.75.48.48v4.75h.17c1.41-1.85,2.98-3.25,4.72-4.2,1.73-.96,3.32-1.44,4.75-1.44s2.6.47,3.5,1.4c.9.93,1.35,2.19,1.35,3.76Z"/>
    </g>
  </g>
  <line class="cls-2" x1="397.35" x2="397.35" y2="131.06"/>
  <g>
    <g>
      <line class="cls-1" x1="585.53" y1="96.32" x2="524" y2="32.48"/>
      <line class="cls-1" x1="585.53" y1="96.32" x2="510.46" y2="115.47"/>
      <line class="cls-1" x1="585.53" y1="96.32" x2="656.91" y2="64.4"/>
      <line class="cls-1" x1="656.91" y1="64.4" x2="711.06" y2="32.48"/>
      <line class="cls-1" x1="656.91" y1="64.4" x2="711.06" y2="115.47"/>
      <line class="cls-1" x1="524" y1="32.48" x2="489.54" y2="9.5"/>
    </g>
    <g>
      <ellipse class="cls-5" cx="585.53" cy="96.32" rx="20.92" ry="21.7"/>
      <ellipse class="cls-5" cx="656.91" cy="64.4" rx="16" ry="16.6"/>
      <ellipse class="cls-9" cx="524" cy="32.48" rx="13.54" ry="14.04"/>
      <ellipse class="cls-9" cx="510.52" cy="117.48" rx="12.31" ry="12.77"/>
      <ellipse class="cls-9" cx="711.06" cy="32.48" rx="11.08" ry="11.49"/>
      <ellipse class="cls-9" cx="711.06" cy="115.47" rx="11.08" ry="11.49"/>
      <ellipse class="cls-8" cx="489.54" cy="9.5" rx="8.61" ry="8.94"/>
    </g>
  </g>
  <g class="cls-3">
    <g class="cls-3">
      <path class="cls-4" d="M419.59,73.34v-17.18h3.42l4.07,12.16c.38,1.13.65,1.98.82,2.54.2-.62.5-1.54.91-2.75l4.11-11.95h3.06v17.18h-2.19v-14.38l-4.99,14.38h-2.05l-4.97-14.62v14.62h-2.19Z"/>
      <path class="cls-4" d="M440.26,64.97c0-2.85.77-5.08,2.3-6.7s3.51-2.42,5.93-2.42c1.59,0,3.02.38,4.29,1.14s2.24,1.81,2.91,3.17,1,2.89,1,4.61-.35,3.3-1.05,4.68-1.7,2.42-2.99,3.12-2.68,1.06-4.17,1.06c-1.62,0-3.06-.39-4.34-1.17s-2.24-1.85-2.89-3.2-.98-2.78-.98-4.29ZM442.6,65c0,2.07.56,3.7,1.67,4.89s2.51,1.79,4.19,1.79,3.12-.6,4.22-1.8,1.66-2.91,1.66-5.12c0-1.4-.24-2.62-.71-3.66s-1.16-1.85-2.07-2.43-1.93-.86-3.06-.86c-1.61,0-2.99.55-4.15,1.66s-1.74,2.95-1.74,5.54Z"/>
      <path class="cls-4" d="M460.91,73.34v-17.18h5.92c1.34,0,2.36.08,3.06.25.98.23,1.82.64,2.52,1.23.91.77,1.58,1.74,2.03,2.94s.67,2.55.67,4.08c0,1.3-.15,2.46-.46,3.47s-.7,1.84-1.17,2.5-1,1.18-1.56,1.56-1.25.67-2.05.86-1.72.29-2.76.29h-6.2ZM463.19,71.31h3.67c1.13,0,2.02-.11,2.67-.32s1.16-.51,1.54-.89c.54-.54.96-1.26,1.26-2.17s.45-2.01.45-3.31c0-1.8-.29-3.18-.88-4.14s-1.31-1.61-2.15-1.94c-.61-.23-1.59-.35-2.94-.35h-3.61v13.12Z"/>
      <path class="cls-4" d="M479.59,73.34v-17.18h12.42v2.03h-10.15v5.26h9.5v2.02h-9.5v5.85h10.55v2.03h-12.82Z"/>
      <path class="cls-4" d="M496.75,73.34v-17.18h2.27v15.15h8.46v2.03h-10.73Z"/>
      <path class="cls-4" d="M518.68,73.34v-17.18h11.59v2.03h-9.32v5.32h8.06v2.03h-8.06v7.8h-2.27Z"/>
      <path class="cls-4" d="M533.83,64.97c0-2.85.77-5.08,2.3-6.7s3.51-2.42,5.93-2.42c1.59,0,3.02.38,4.29,1.14s2.24,1.81,2.91,3.17,1,2.89,1,4.61-.35,3.3-1.05,4.68-1.7,2.42-2.99,3.12-2.68,1.06-4.17,1.06c-1.62,0-3.06-.39-4.34-1.17s-2.24-1.85-2.89-3.2-.98-2.78-.98-4.29ZM536.17,65c0,2.07.56,3.7,1.67,4.89s2.51,1.79,4.19,1.79,3.12-.6,4.22-1.8,1.66-2.91,1.66-5.12c0-1.4-.24-2.62-.71-3.66s-1.16-1.85-2.07-2.43-1.93-.86-3.06-.86c-1.61,0-2.99.55-4.15,1.66s-1.74,2.95-1.74,5.54Z"/>
      <path class="cls-4" d="M554.52,73.34v-17.18h7.62c1.53,0,2.7.15,3.49.46s1.43.85,1.91,1.63.71,1.64.71,2.59c0,1.22-.39,2.25-1.18,3.08s-2.01,1.37-3.66,1.59c.6.29,1.06.57,1.37.86.66.61,1.29,1.37,1.89,2.29l2.99,4.68h-2.86l-2.27-3.57c-.66-1.03-1.21-1.82-1.64-2.37s-.81-.93-1.15-1.15-.69-.37-1.04-.46c-.26-.05-.68-.08-1.27-.08h-2.64v7.63h-2.27ZM556.79,63.74h4.89c1.04,0,1.85-.11,2.44-.32s1.03-.56,1.34-1.03.46-.99.46-1.54c0-.81-.29-1.48-.88-2s-1.52-.79-2.79-.79h-5.44v5.68Z"/>
      <path class="cls-4" d="M424.57,102.14l-6.66-17.18h2.46l4.46,12.48c.36,1,.66,1.94.9,2.81.27-.94.57-1.88.93-2.81l4.64-12.48h2.32l-6.73,17.18h-2.33Z"/>
      <path class="cls-4" d="M437.35,102.14v-17.18h2.27v17.18h-2.27Z"/>
      <path class="cls-4" d="M444.96,102.14v-17.18h7.62c1.53,0,2.7.15,3.49.46s1.43.85,1.91,1.63.71,1.64.71,2.59c0,1.22-.39,2.25-1.18,3.08s-2.01,1.37-3.66,1.59c.6.29,1.06.57,1.37.86.66.61,1.29,1.37,1.89,2.29l2.99,4.68h-2.86l-2.27-3.57c-.66-1.03-1.21-1.82-1.64-2.37s-.81-.93-1.15-1.15-.69-.37-1.04-.46c-.26-.05-.68-.08-1.27-.08h-2.64v7.63h-2.27ZM447.24,92.54h4.89c1.04,0,1.85-.11,2.44-.32s1.03-.56,1.34-1.03.46-.99.46-1.54c0-.81-.29-1.48-.88-2s-1.52-.79-2.79-.79h-5.44v5.68Z"/>
      <path class="cls-4" d="M467.5,102.14v-15.15h-5.66v-2.03h13.62v2.03h-5.68v15.15h-2.27Z"/>
      <path class="cls-4" d="M490.35,84.96h2.27v9.93c0,1.73-.2,3.1-.59,4.11s-1.1,1.84-2.12,2.48-2.36.96-4.01.96-2.93-.28-3.95-.83-1.75-1.36-2.19-2.41-.66-2.49-.66-4.31v-9.93h2.27v9.91c0,1.49.14,2.59.42,3.3s.75,1.25,1.43,1.63,1.5.57,2.48.57c1.67,0,2.86-.38,3.57-1.14s1.07-2.21,1.07-4.37v-9.91Z"/>
      <path class="cls-4" d="M495.82,102.14l6.6-17.18h2.45l7.03,17.18h-2.59l-2-5.2h-7.18l-1.89,5.2h-2.41ZM500.78,95.08h5.82l-1.79-4.76c-.55-1.45-.95-2.63-1.22-3.56-.22,1.1-.53,2.2-.93,3.28l-1.89,5.04Z"/>
      <path class="cls-4" d="M514.92,102.14v-17.18h2.27v15.15h8.46v2.03h-10.73Z"/>
      <path class="cls-4" d="M419.7,130.94v-17.18h7.62c1.53,0,2.7.15,3.49.46s1.43.85,1.91,1.63.71,1.64.71,2.59c0,1.22-.39,2.25-1.18,3.08s-2.01,1.37-3.66,1.59c.6.29,1.06.57,1.37.86.66.61,1.29,1.37,1.89,2.29l2.99,4.68h-2.86l-2.27-3.57c-.66-1.03-1.21-1.82-1.64-2.37s-.81-.93-1.15-1.15-.69-.37-1.04-.46c-.26-.05-.68-.08-1.27-.08h-2.64v7.63h-2.27ZM421.97,121.34h4.89c1.04,0,1.85-.11,2.44-.32s1.03-.56,1.34-1.03.46-.99.46-1.54c0-.81-.29-1.48-.88-2s-1.52-.79-2.79-.79h-5.44v5.68Z"/>
      <path class="cls-4" d="M438.34,130.94v-17.18h12.42v2.03h-10.15v5.26h9.5v2.02h-9.5v5.85h10.55v2.03h-12.82Z"/>
      <path class="cls-4" d="M467.85,124.91l2.27.57c-.48,1.87-1.33,3.29-2.57,4.27s-2.75,1.47-4.54,1.47-3.36-.38-4.52-1.13-2.04-1.85-2.65-3.28-.91-2.96-.91-4.61c0-1.79.34-3.35,1.03-4.68s1.66-2.34,2.92-3.04,2.65-1.04,4.17-1.04c1.72,0,3.16.44,4.34,1.31s1.99,2.11,2.45,3.69l-2.24.53c-.4-1.25-.98-2.16-1.73-2.73s-1.71-.86-2.86-.86c-1.32,0-2.42.32-3.31.95s-1.51,1.48-1.87,2.55-.54,2.17-.54,3.3c0,1.46.21,2.74.64,3.83s1.09,1.9,1.99,2.44,1.87.81,2.92.81c1.27,0,2.35-.37,3.23-1.1s1.48-1.82,1.79-3.27Z"/>
      <path class="cls-4" d="M473.53,122.57c0-2.85.77-5.08,2.3-6.7s3.51-2.42,5.93-2.42c1.59,0,3.02.38,4.29,1.14s2.24,1.81,2.91,3.17,1,2.89,1,4.61-.35,3.3-1.05,4.68-1.7,2.42-2.99,3.12-2.68,1.06-4.17,1.06c-1.62,0-3.06-.39-4.34-1.17s-2.24-1.85-2.89-3.2-.98-2.78-.98-4.29ZM475.87,122.6c0,2.07.56,3.7,1.67,4.89s2.51,1.79,4.19,1.79,3.12-.6,4.22-1.8,1.66-2.91,1.66-5.12c0-1.4-.24-2.62-.71-3.66s-1.16-1.85-2.07-2.43-1.93-.86-3.06-.86c-1.61,0-2.99.55-4.15,1.66s-1.74,2.95-1.74,5.54Z"/>
      <path class="cls-4" d="M494.16,130.94v-17.18h2.33l9.02,13.49v-13.49h2.18v17.18h-2.33l-9.02-13.5v13.5h-2.18Z"/>
      <path class="cls-4" d="M512.04,125.42l2.14-.19c.1.86.34,1.56.71,2.12s.95,1,1.73,1.34,1.66.51,2.64.51c.87,0,1.63-.13,2.3-.39s1.16-.61,1.48-1.06.49-.94.49-1.47-.16-1.01-.47-1.41-.83-.74-1.55-1.01c-.46-.18-1.48-.46-3.06-.84s-2.68-.74-3.32-1.07c-.82-.43-1.43-.96-1.83-1.6s-.6-1.35-.6-2.14c0-.87.25-1.68.74-2.43s1.21-1.33,2.16-1.72,2-.59,3.15-.59c1.27,0,2.4.21,3.37.62s1.72,1.01,2.24,1.81.8,1.7.84,2.71l-2.18.16c-.12-1.09-.51-1.91-1.19-2.46s-1.67-.83-2.99-.83-2.38.25-3.01.76-.94,1.11-.94,1.82c0,.62.22,1.12.67,1.52.44.4,1.58.81,3.43,1.22s3.12.78,3.8,1.1c1,.46,1.74,1.04,2.21,1.75s.71,1.52.71,2.44-.26,1.78-.79,2.58-1.28,1.44-2.26,1.89-2.08.67-3.31.67c-1.55,0-2.86-.23-3.91-.68s-1.88-1.13-2.47-2.04-.91-1.94-.94-3.09Z"/>
      <path class="cls-4" d="M534.49,130.94v-15.15h-5.66v-2.03h13.62v2.03h-5.68v15.15h-2.27Z"/>
      <path class="cls-4" d="M546.11,130.94v-17.18h7.62c1.53,0,2.7.15,3.49.46s1.43.85,1.91,1.63.71,1.64.71,2.59c0,1.22-.39,2.25-1.18,3.08s-2.01,1.37-3.66,1.59c.6.29,1.06.57,1.37.86.66.61,1.29,1.37,1.89,2.29l2.99,4.68h-2.86l-2.27-3.57c-.66-1.03-1.21-1.82-1.64-2.37s-.81-.93-1.15-1.15-.69-.37-1.04-.46c-.26-.05-.68-.08-1.27-.08h-2.64v7.63h-2.27ZM548.38,121.34h4.89c1.04,0,1.85-.11,2.44-.32s1.03-.56,1.34-1.03.46-.99.46-1.54c0-.81-.29-1.48-.88-2s-1.52-.79-2.79-.79h-5.44v5.68Z"/>
      <path class="cls-4" d="M575.97,113.76h2.27v9.93c0,1.73-.2,3.1-.59,4.11s-1.1,1.84-2.12,2.48-2.36.96-4.01.96-2.93-.28-3.95-.83-1.75-1.36-2.19-2.41-.66-2.49-.66-4.31v-9.93h2.27v9.91c0,1.49.14,2.59.42,3.3s.75,1.25,1.43,1.63,1.5.57,2.48.57c1.67,0,2.86-.38,3.57-1.14s1.07-2.21,1.07-4.37v-9.91Z"/>
      <path class="cls-4" d="M595.59,124.91l2.27.57c-.48,1.87-1.33,3.29-2.57,4.27s-2.75,1.47-4.54,1.47-3.36-.38-4.52-1.13-2.04-1.85-2.65-3.28-.91-2.96-.91-4.61c0-1.79.34-3.35,1.03-4.68s1.66-2.34,2.92-3.04,2.65-1.04,4.17-1.04c1.72,0,3.16.44,4.34,1.31s1.99,2.11,2.45,3.69l-2.24.53c-.4-1.25-.98-2.16-1.73-2.73s-1.71-.86-2.86-.86c-1.32,0-2.42.32-3.31.95s-1.51,1.48-1.87,2.55-.54,2.17-.54,3.3c0,1.46.21,2.74.64,3.83s1.09,1.9,1.99,2.44,1.87.81,2.92.81c1.27,0,2.35-.37,3.23-1.1s1.48-1.82,1.79-3.27Z"/>
      <path class="cls-4" d="M606.33,130.94v-15.15h-5.66v-2.03h13.62v2.03h-5.68v15.15h-2.27Z"/>
      <path class="cls-4" d="M618.3,130.94v-17.18h2.27v17.18h-2.27Z"/>
      <path class="cls-4" d="M625.19,122.57c0-2.85.77-5.08,2.3-6.7s3.51-2.42,5.93-2.42c1.59,0,3.02.38,4.29,1.14s2.24,1.81,2.91,3.17,1,2.89,1,4.61-.35,3.3-1.05,4.68-1.7,2.42-2.99,3.12-2.68,1.06-4.17,1.06c-1.62,0-3.06-.39-4.34-1.17s-2.24-1.85-2.89-3.2-.98-2.78-.98-4.29ZM627.53,122.6c0,2.07.56,3.7,1.67,4.89s2.51,1.79,4.19,1.79,3.12-.6,4.22-1.8,1.66-2.91,1.66-5.12c0-1.4-.24-2.62-.71-3.66s-1.16-1.85-2.07-2.43-1.93-.86-3.06-.86c-1.61,0-2.99.55-4.15,1.66s-1.74,2.95-1.74,5.54Z"/>
      <path class="cls-4" d="M645.82,130.94v-17.18h2.33l9.02,13.49v-13.49h2.18v17.18h-2.33l-9.02-13.5v13.5h-2.18Z"/>
      <path class="cls-4" d="M663.7,125.42l2.14-.19c.1.86.34,1.56.71,2.12s.95,1,1.73,1.34,1.66.51,2.64.51c.87,0,1.63-.13,2.3-.39s1.16-.61,1.48-1.06.49-.94.49-1.47-.16-1.01-.47-1.41-.83-.74-1.55-1.01c-.46-.18-1.48-.46-3.06-.84s-2.68-.74-3.32-1.07c-.82-.43-1.43-.96-1.83-1.6s-.6-1.35-.6-2.14c0-.87.25-1.68.74-2.43s1.21-1.33,2.16-1.72,2-.59,3.15-.59c1.27,0,2.4.21,3.37.62s1.72,1.01,2.24,1.81.8,1.7.84,2.71l-2.18.16c-.12-1.09-.51-1.91-1.19-2.46s-1.67-.83-2.99-.83-2.38.25-3.01.76-.94,1.11-.94,1.82c0,.62.22,1.12.67,1.52.44.4,1.58.81,3.43,1.22s3.12.78,3.8,1.1c1,.46,1.74,1.04,2.21,1.75s.71,1.52.71,2.44-.26,1.78-.79,2.58-1.28,1.44-2.26,1.89-2.08.67-3.31.67c-1.55,0-2.86-.23-3.91-.68s-1.88-1.13-2.47-2.04-.91-1.94-.94-3.09Z"/>
    </g>
  </g>
</svg>